<?xml version="1.0" encoding="UTF-8"?>
<svg version="1.1" xmlns="http://www.w3.org/2000/svg" width="4675" height="4675">
<path d="M0 0 C1542.75 0 3085.5 0 4675 0 C4675 1542.75 4675 3085.5 4675 4675 C3132.25 4675 1589.5 4675 0 4675 C0 3132.25 0 1589.5 0 0 Z " fill="#292929" transform="translate(0,0)"/>
<path d="M0 0 C12.26092584 10.90085625 16.37477584 26.32005505 17.359375 42.09765625 C21.58639042 121.13003553 -32.305221 212.10947845 -71.12939453 278.48242188 C-74.09239987 283.61000074 -76.94920257 288.79757369 -79.828125 293.97265625 C-84.52229708 302.38139101 -89.30875189 310.7081229 -94.32519531 318.92773438 C-95.9303742 321.57562411 -97.51610814 324.23478461 -99.1015625 326.89453125 C-105.28689504 337.26419986 -111.51475201 347.59437509 -118.0065918 357.77539062 C-121.98146987 364.01869621 -125.8551197 370.32101164 -129.71734619 376.63452148 C-135.09525594 385.42329417 -140.52563747 394.1437571 -146.33203125 402.65625 C-148.21614539 405.43172755 -150.02059748 408.25256192 -151.81640625 411.0859375 C-156.23262686 418.05049977 -160.74260516 424.95217661 -165.265625 431.84765625 C-165.71682709 432.53585449 -166.16802917 433.22405273 -166.63290405 433.93310547 C-174.3431568 445.68450006 -182.17896419 457.34658117 -190.08520508 468.96679688 C-196.22678418 477.99467669 -202.30757605 487.0595799 -208.31762695 496.17578125 C-211.97678989 501.70040965 -215.77775995 507.09304243 -219.6965332 512.43652344 C-222.62957547 516.45136215 -225.4814206 520.52135222 -228.328125 524.59765625 C-228.92625 525.45222412 -229.524375 526.30679199 -230.140625 527.18725586 C-233.64527036 532.20489351 -237.11078997 537.24699079 -240.546875 542.31176758 C-246.61410589 551.25182486 -252.91303484 559.98723262 -259.35546875 568.66015625 C-263.46969303 574.20123105 -267.47525152 579.81709965 -271.46826172 585.44580078 C-283.43513528 602.30708077 -295.56450266 619.04719468 -307.85253906 635.67578125 C-309.67769262 638.14786252 -311.4995107 640.62236826 -313.3203125 643.09765625 C-318.92647609 650.7181719 -324.54665781 658.32577802 -330.23828125 665.8828125 C-332.76364975 669.24960529 -335.25154338 672.64373003 -337.74267578 676.03588867 C-343.14023132 683.38555295 -348.58658861 690.68234142 -354.171875 697.890625 C-356.9082361 701.43095715 -359.58712812 705.01345822 -362.265625 708.59765625 C-373.71339722 723.90055724 -385.35274285 739.0529905 -397.10351562 754.12402344 C-402.46742437 761.01122775 -407.78054244 767.93352628 -412.99609375 774.93383789 C-417.97259043 781.61101073 -423.05242957 788.18165551 -428.28076172 794.66357422 C-431.45490238 798.60191754 -434.57190971 802.57670856 -437.640625 806.59765625 C-441.72101631 811.9396773 -445.89825674 817.19805062 -450.10717773 822.43920898 C-453.49616941 826.66121253 -456.8613749 830.90066466 -460.203125 835.16015625 C-460.88000366 836.02265991 -460.88000366 836.02265991 -461.57055664 836.90258789 C-463.82226866 839.77379295 -466.07045035 842.64772836 -468.31640625 845.5234375 C-473.73823366 852.45641114 -479.2396143 859.31728651 -484.80419922 866.13623047 C-488.29569912 870.42177003 -491.73862463 874.74080662 -495.140625 879.09765625 C-500.2214725 885.60338054 -505.42097839 892.00845224 -510.63671875 898.40625 C-513.70400697 902.16982316 -516.7356679 905.96103471 -519.76171875 909.7578125 C-521.80627531 912.30394427 -523.87817377 914.82624285 -525.953125 917.34765625 C-529.37033879 921.50927167 -532.70640091 925.72544877 -536.015625 929.97265625 C-540.13141345 935.24849318 -544.37659437 940.39144904 -548.72167969 945.47949219 C-552.12816467 949.47288055 -555.42809874 953.53786151 -558.69140625 957.6484375 C-564.07836444 964.41722064 -569.60016396 971.06985532 -575.203125 977.66015625 C-579.11390014 982.26102854 -582.93656953 986.91871417 -586.69140625 991.6484375 C-592.51346389 998.96392877 -598.50061614 1006.13688922 -604.55395508 1013.26098633 C-607.45269845 1016.67766954 -610.31195819 1020.12243702 -613.140625 1023.59765625 C-616.88979989 1028.2037854 -620.71247688 1032.74155225 -624.55908203 1037.26611328 C-627.41909438 1040.63616615 -630.23318233 1044.03791933 -633.015625 1047.47265625 C-637.18218923 1052.59499149 -641.50263781 1057.57183003 -645.84106445 1062.5480957 C-649.76551597 1067.05980988 -653.57489283 1071.6509118 -657.33984375 1076.296875 C-660.52163072 1080.17011993 -663.78931114 1083.9666801 -667.05883789 1087.76586914 C-670.43887744 1091.69364734 -673.79872911 1095.63738281 -677.140625 1099.59765625 C-681.45640029 1104.70971152 -685.80330506 1109.79420192 -690.16235352 1114.86938477 C-693.48630461 1118.74241248 -696.78817315 1122.63323152 -700.078125 1126.53515625 C-704.58499394 1131.87672112 -709.15042118 1137.16546972 -713.73413086 1142.44116211 C-717.38633203 1146.64586054 -721.02045522 1150.86535737 -724.640625 1155.09765625 C-730.39182988 1161.8187613 -736.18306786 1168.50458046 -741.98193359 1175.18457031 C-743.66874835 1177.13009289 -745.35236518 1179.07834026 -747.03515625 1181.02734375 C-751.77340972 1186.51175727 -756.51236189 1191.98664836 -761.390625 1197.34765625 C-764.3413738 1200.59775638 -767.14360127 1203.92382958 -769.890625 1207.34765625 C-773.99079124 1212.4226872 -778.37564274 1217.16157067 -782.8449707 1221.9074707 C-786.06787387 1225.34839794 -789.13542118 1228.84718666 -792.078125 1232.53515625 C-796.28901198 1237.80070369 -800.86070923 1242.65922364 -805.49023438 1247.55273438 C-808.8373463 1251.10926647 -812.03528551 1254.71003667 -815.078125 1258.53515625 C-819.48242227 1264.05498847 -824.28548658 1269.15367513 -829.15014648 1274.26538086 C-833.43711885 1278.7750826 -837.5633656 1283.39817216 -841.640625 1288.09765625 C-843.05273111 1289.68505829 -844.46872979 1291.26901668 -845.890625 1292.84765625 C-846.64859375 1293.68941406 -847.4065625 1294.53117187 -848.1875 1295.3984375 C-850.35640258 1297.78492107 -852.54398428 1300.15290438 -854.73632812 1302.51782227 C-859.56605907 1307.73631632 -864.12435006 1313.09545891 -868.5859375 1318.63671875 C-870.90554119 1321.41495131 -873.38284441 1323.93052812 -875.98046875 1326.4453125 C-878.30744556 1328.76133883 -880.41613424 1331.24463537 -882.55859375 1333.73046875 C-885.20108124 1336.73487291 -887.91879075 1339.6652263 -890.640625 1342.59765625 C-893.81297026 1346.01722866 -896.97323413 1349.43606991 -900.015625 1352.97265625 C-904.00917042 1357.59572607 -908.21426694 1362.02347244 -912.40380859 1366.46826172 C-915.35767264 1369.61146538 -918.2593122 1372.78455345 -921.0859375 1376.04296875 C-924.78238002 1380.29604233 -928.63573981 1384.38728845 -932.515625 1388.47265625 C-937.56415992 1393.81178752 -942.56518456 1399.18038558 -947.45703125 1404.6640625 C-956.11176838 1414.30968187 -965.01839964 1423.73217497 -973.8671875 1433.19921875 C-975.60545187 1435.06000396 -977.34209175 1436.92228952 -979.078125 1438.78515625 C-985.91831297 1446.12380369 -992.77997777 1453.44165923 -999.66162109 1460.74145508 C-1003.56825618 1464.88768826 -1007.45926784 1469.04779157 -1011.33764648 1473.22045898 C-1016.11940122 1478.36481124 -1020.9322395 1483.44203193 -1025.94140625 1488.3671875 C-1027.63537597 1490.09231068 -1029.20104927 1491.87993372 -1030.765625 1493.72265625 C-1034.72559725 1498.33958242 -1039.05924273 1502.57063393 -1043.40283203 1506.82275391 C-1046.42214155 1509.79794876 -1049.31112653 1512.82267731 -1052.078125 1516.03515625 C-1056.35306508 1520.98759799 -1061.01204843 1525.51943556 -1065.6796875 1530.09765625 C-1068.86445095 1533.24553055 -1071.95413919 1536.40745435 -1074.859375 1539.81640625 C-1080.45927913 1546.31788224 -1086.71511178 1552.22631719 -1092.81591797 1558.25244141 C-1094.4575523 1559.8757765 -1096.09600519 1561.50227745 -1097.734375 1563.12890625 C-1098.2231311 1563.60936401 -1098.71188721 1564.08982178 -1099.2154541 1564.58483887 C-1101.80378912 1567.15526455 -1104.25134937 1569.78892033 -1106.61378479 1572.5688324 C-1111.50256339 1578.1734958 -1116.78744403 1583.38443302 -1122.04858398 1588.63500977 C-1123.18953744 1589.77732075 -1124.3302786 1590.91984381 -1125.4708252 1592.06256104 C-1128.54910142 1595.14536975 -1131.63050066 1598.22503858 -1134.71263385 1601.3039906 C-1137.94949861 1604.53831005 -1141.18390739 1607.77508411 -1144.41871643 1611.01145935 C-1149.84969482 1616.44425311 -1155.28276918 1621.87494408 -1160.71704102 1627.30444336 C-1166.9849384 1633.56689935 -1173.2492254 1639.83294946 -1179.51164955 1646.1008783 C-1184.90450393 1651.49828183 -1190.29931859 1656.8937202 -1195.69575363 1662.28754371 C-1198.91180909 1665.50204631 -1202.12719978 1668.71720605 -1205.34081841 1671.93414497 C-1208.36323071 1674.95946222 -1211.38810998 1677.98229167 -1214.41484833 1681.00328064 C-1215.52018787 1682.10730659 -1216.62469347 1683.21216826 -1217.72826576 1684.31796074 C-1223.02539865 1689.62476083 -1228.33677248 1694.866474 -1234.04961491 1699.73038387 C-1236.2407147 1701.61335761 -1238.27151677 1703.63263239 -1240.296875 1705.69140625 C-1241.09222656 1706.49449219 -1241.88757812 1707.29757812 -1242.70703125 1708.125 C-1243.51011719 1708.94097656 -1244.31320312 1709.75695313 -1245.140625 1710.59765625 C-1250.2102646 1715.74867048 -1255.30224489 1720.75845358 -1260.78710938 1725.46679688 C-1263.71167902 1728.04004835 -1266.41955415 1730.81271839 -1269.140625 1733.59765625 C-1273.21127051 1737.71979929 -1277.33063828 1741.67489441 -1281.75 1745.42578125 C-1284.70239016 1748.03657254 -1287.42862323 1750.86374673 -1290.171875 1753.69140625 C-1292.86833799 1756.31960436 -1295.6832016 1758.77022621 -1298.52636719 1761.23730469 C-1301.93267522 1764.23454109 -1305.22002329 1767.35482391 -1308.515625 1770.47265625 C-1313.67390833 1775.3313228 -1318.86506482 1780.14081179 -1324.15234375 1784.859375 C-1327.17440428 1787.57780621 -1330.15820081 1790.33589697 -1333.140625 1793.09765625 C-1338.59679093 1798.14730924 -1344.10352743 1803.13677697 -1349.640625 1808.09765625 C-1351.3490849 1809.63918266 -1353.05741784 1811.18084978 -1354.765625 1812.72265625 C-1358.34575525 1815.94588878 -1361.95505264 1819.13164742 -1365.58984375 1822.29296875 C-1367.90151297 1824.32723766 -1370.1759393 1826.39987935 -1372.453125 1828.47265625 C-1375.91592582 1831.60188452 -1379.44741503 1834.60265974 -1383.078125 1837.53515625 C-1386.88150003 1840.61102213 -1390.54145152 1843.78518791 -1394.140625 1847.09765625 C-1398.50831992 1851.11371472 -1403.00911736 1854.89151079 -1407.625 1858.6171875 C-1411.18732981 1861.5473422 -1414.66527626 1864.56534682 -1418.140625 1867.59765625 C-1423.32326456 1872.11573825 -1428.56537337 1876.5369282 -1433.91015625 1880.86328125 C-1436.40640324 1882.9059898 -1438.86685691 1884.98278443 -1441.31933594 1887.07739258 C-1447.43805066 1892.30280421 -1453.68336717 1897.32986038 -1460.03125 1902.2734375 C-1463.16149969 1904.71349279 -1466.25917281 1907.19191823 -1469.35058594 1909.6809082 C-1475.20750995 1914.3961651 -1481.11664013 1919.01144991 -1487.15625 1923.4921875 C-1490.88337608 1926.26499804 -1494.56568086 1929.09579815 -1498.25341797 1931.9206543 C-1510.43710171 1941.24740743 -1522.81724999 1950.19608608 -1535.453125 1958.8984375 C-1537.52119001 1960.32530098 -1539.5840389 1961.75976575 -1541.640625 1963.203125 C-1550.64681078 1969.50975254 -1559.84153859 1975.50907305 -1569.08837891 1981.45556641 C-1570.73546798 1982.5152872 -1572.38108787 1983.57729665 -1574.02490234 1984.64208984 C-1594.19790998 1997.70071892 -1615.19947809 2009.26151294 -1636.640625 2020.09765625 C-1637.84549561 2020.70818848 -1637.84549561 2020.70818848 -1639.07470703 2021.33105469 C-1687.50915476 2045.65532164 -1745.41014703 2062.28409996 -1798.97021484 2045.84423828 C-1815.38345415 2040.40108863 -1830.71435394 2032.29503506 -1844.640625 2022.09765625 C-1846.16816406 2021.00710938 -1846.16816406 2021.00710938 -1847.7265625 2019.89453125 C-1855.17383796 2014.46056123 -1862.14535737 2008.51525763 -1869.08105469 2002.453125 C-1870.47819129 2001.2388322 -1871.89049776 2000.04204524 -1873.3046875 1998.84765625 C-1874.03429688 1998.22890625 -1874.76390625 1997.61015625 -1875.515625 1996.97265625 C-1876.13179687 1996.45445313 -1876.74796875 1995.93625 -1877.3828125 1995.40234375 C-1878.640625 1994.09765625 -1878.640625 1994.09765625 -1878.640625 1992.09765625 C-1879.50349121 1991.72157227 -1879.50349121 1991.72157227 -1880.38378906 1991.33789062 C-1882.94503696 1989.93036798 -1884.68119892 1988.315956 -1886.75 1986.25390625 C-1887.88115234 1985.12662109 -1887.88115234 1985.12662109 -1889.03515625 1983.9765625 C-1889.81246094 1983.19152344 -1890.58976562 1982.40648438 -1891.390625 1981.59765625 C-1892.18339844 1980.81261719 -1892.97617188 1980.02757813 -1893.79296875 1979.21875 C-1894.91638672 1978.09146484 -1894.91638672 1978.09146484 -1896.0625 1976.94140625 C-1897.09262207 1975.90790039 -1897.09262207 1975.90790039 -1898.14355469 1974.85351562 C-1899.640625 1973.09765625 -1899.640625 1973.09765625 -1899.640625 1971.09765625 C-1900.960625 1970.43765625 -1902.280625 1969.77765625 -1903.640625 1969.09765625 C-1903.640625 1968.43765625 -1903.640625 1967.77765625 -1903.640625 1967.09765625 C-1904.630625 1966.76765625 -1905.620625 1966.43765625 -1906.640625 1966.09765625 C-1908.09075928 1964.62875366 -1908.09075928 1964.62875366 -1909.66308594 1962.70849609 C-1914.25570269 1957.30049845 -1919.26151668 1952.33208481 -1924.28125 1947.32421875 C-1925.29553546 1946.30925808 -1926.30967257 1945.29414914 -1927.32366943 1944.27890015 C-1929.43323734 1942.16786887 -1931.54457578 1940.05862948 -1933.65722656 1937.95068359 C-1936.36293839 1935.25070507 -1939.06408582 1932.54621141 -1941.76395035 1929.84038734 C-1943.85020539 1927.75052101 -1945.93883334 1925.66303932 -1948.02819061 1923.57627487 C-1949.02566633 1922.57946495 -1950.02240329 1921.58191519 -1951.01837921 1920.58360672 C-1952.40599152 1919.1934546 -1953.79715437 1917.80684926 -1955.18847656 1916.42041016 C-1955.97788635 1915.63179596 -1956.76729614 1914.84318176 -1957.58062744 1914.03067017 C-1959.68708986 1911.94762215 -1959.68708986 1911.94762215 -1962.640625 1910.09765625 C-1962.640625 1909.43765625 -1962.640625 1908.77765625 -1962.640625 1908.09765625 C-1963.300625 1908.09765625 -1963.960625 1908.09765625 -1964.640625 1908.09765625 C-1964.640625 1907.43765625 -1964.640625 1906.77765625 -1964.640625 1906.09765625 C-1965.21135742 1905.85144531 -1965.78208984 1905.60523437 -1966.37011719 1905.3515625 C-1969.0190531 1903.88866628 -1970.82611046 1902.17120306 -1972.96875 1900.03515625 C-1973.76796875 1899.23851563 -1974.5671875 1898.441875 -1975.390625 1897.62109375 C-1976.215625 1896.78835938 -1977.040625 1895.955625 -1977.890625 1895.09765625 C-1978.73109375 1894.26492188 -1979.5715625 1893.4321875 -1980.4375 1892.57421875 C-1981.2315625 1891.77757813 -1982.025625 1890.9809375 -1982.84375 1890.16015625 C-1983.93671387 1889.06380859 -1983.93671387 1889.06380859 -1985.05175781 1887.9453125 C-1986.640625 1886.09765625 -1986.640625 1886.09765625 -1986.640625 1884.09765625 C-1987.5378125 1883.70320313 -1987.5378125 1883.70320313 -1988.453125 1883.30078125 C-1990.76760968 1882.02781468 -1991.95689002 1880.86463045 -1993.640625 1878.84765625 C-1994.54361328 1877.77644531 -1994.54361328 1877.77644531 -1995.46484375 1876.68359375 C-1996.18285156 1875.83023438 -1996.90085937 1874.976875 -1997.640625 1874.09765625 C-1998.5617575 1873.04638209 -1999.48508365 1871.99702748 -2000.41015625 1870.94921875 C-2033.44521075 1833.3594615 -2048.90497359 1793.13571654 -2046.640625 1743.09765625 C-2043.26014652 1694.07289315 -2019.61579356 1646.29530567 -1995.11279297 1604.60644531 C-1993.7259432 1602.24305091 -1992.35610751 1599.87052994 -1990.98828125 1597.49609375 C-1977.24852151 1573.89721251 -1961.510315 1551.30256156 -1945.640625 1529.09765625 C-1945.08584473 1528.3190625 -1944.53106445 1527.54046875 -1943.95947266 1526.73828125 C-1937.03982923 1517.03929064 -1929.96008787 1507.49814287 -1922.640625 1498.09765625 C-1921.40788622 1496.49509583 -1920.17821103 1494.8902172 -1918.94873047 1493.28515625 C-1910.02164526 1481.63900197 -1900.91133716 1470.15246151 -1891.63671875 1458.78125 C-1889.24066447 1455.84162217 -1886.8712259 1452.88235616 -1884.515625 1449.91015625 C-1881.02076361 1445.52502491 -1877.40647307 1441.24890223 -1873.77246094 1436.97924805 C-1870.89413079 1433.5935899 -1868.06245619 1430.17635788 -1865.265625 1426.72265625 C-1860.62443067 1421.02250849 -1855.80788607 1415.48344998 -1850.98046875 1409.94140625 C-1847.76007763 1406.24277628 -1844.57366505 1402.51592057 -1841.390625 1398.78515625 C-1837.21555677 1393.89861399 -1832.97107295 1389.08490049 -1828.65234375 1384.32421875 C-1826.79327831 1382.26661234 -1824.96134142 1380.18918862 -1823.140625 1378.09765625 C-1819.74567561 1374.1997514 -1816.28396616 1370.36418568 -1812.8203125 1366.52734375 C-1810.94917406 1364.44159445 -1809.10137669 1362.33947997 -1807.265625 1360.22265625 C-1803.81007708 1356.25279422 -1800.2467853 1352.38423382 -1796.68139648 1348.51342773 C-1794.18980187 1345.80365346 -1791.7292419 1343.07531488 -1789.328125 1340.28515625 C-1785.31035345 1335.64777656 -1781.08867734 1331.20078066 -1776.89306641 1326.72509766 C-1773.62534424 1323.23565885 -1770.38502134 1319.72846885 -1767.203125 1316.16015625 C-1762.61264993 1311.02054024 -1757.88550116 1306.01288068 -1753.16186523 1300.99609375 C-1749.64807708 1297.25845508 -1746.17484459 1293.49403301 -1742.765625 1289.66015625 C-1739.23185501 1285.69462864 -1735.51906569 1281.95546654 -1731.73828125 1278.2265625 C-1729.88455665 1276.34522189 -1728.1592913 1274.42420218 -1726.453125 1272.41015625 C-1722.51765862 1267.81109835 -1718.20060737 1263.60373679 -1713.87817383 1259.37231445 C-1710.93123732 1256.46844123 -1708.10984437 1253.52508889 -1705.421875 1250.37890625 C-1700.16425826 1244.28805114 -1694.33468128 1238.73548835 -1688.61083984 1233.08837891 C-1687.1081873 1231.60405728 -1685.60874335 1230.11654421 -1684.109375 1228.62890625 C-1683.22701172 1227.75814453 -1682.34464844 1226.88738281 -1681.43554688 1225.99023438 C-1679.36981763 1223.90113507 -1677.44493432 1221.72696962 -1675.5355072 1219.49452209 C-1671.39490289 1214.74810479 -1666.98543382 1210.3020999 -1662.52758789 1205.85522461 C-1661.64208755 1204.96797195 -1660.75658722 1204.0807193 -1659.84425354 1203.1665802 C-1657.43698397 1200.75568742 -1655.02751668 1198.34703582 -1652.61684346 1195.93954921 C-1650.08065566 1193.40591352 -1647.54693174 1190.86981566 -1645.01280212 1188.3341217 C-1640.75878366 1184.07828982 -1636.5026747 1179.82455713 -1632.24536133 1175.57202148 C-1627.34075271 1170.67285389 -1622.43975663 1165.77009456 -1617.54062086 1160.86545461 C-1613.31548766 1156.63576666 -1609.08838789 1152.40805149 -1604.85967249 1148.18194491 C-1602.34226011 1145.66608234 -1599.82550623 1143.14957104 -1597.31053352 1140.63126945 C-1594.50424847 1137.82152878 -1591.69384447 1135.0159299 -1588.88305664 1132.21069336 C-1588.06254822 1131.38816071 -1587.24203979 1130.56562805 -1586.39666748 1129.71817017 C-1582.19160235 1125.52840542 -1577.91701999 1121.49027202 -1573.40196133 1117.63525486 C-1570.39077601 1115.00657214 -1567.60138708 1112.16189496 -1564.796875 1109.31640625 C-1564.18348267 1108.69922729 -1563.57009033 1108.08204834 -1562.93811035 1107.44616699 C-1561.00312442 1105.49911587 -1559.07145095 1103.54883218 -1557.140625 1101.59765625 C-1542.56360857 1086.86700502 -1542.56360857 1086.86700502 -1536.43847656 1081.67724609 C-1532.09167907 1077.85815595 -1528.14164743 1073.59235721 -1524.11328125 1069.44335938 C-1523.43394531 1068.75306641 -1522.75460937 1068.06277344 -1522.0546875 1067.3515625 C-1521.4457666 1066.72580322 -1520.8368457 1066.10004395 -1520.20947266 1065.45532227 C-1518.640625 1064.09765625 -1518.640625 1064.09765625 -1516.640625 1064.09765625 C-1516.310625 1063.10765625 -1515.980625 1062.11765625 -1515.640625 1061.09765625 C-1514.14453125 1059.625 -1514.14453125 1059.625 -1512.203125 1058.03515625 C-1507.76704187 1054.29697408 -1503.76339675 1050.2158913 -1499.7421875 1046.0390625 C-1497.640625 1044.09765625 -1497.640625 1044.09765625 -1495.640625 1044.09765625 C-1495.310625 1043.10765625 -1494.980625 1042.11765625 -1494.640625 1041.09765625 C-1493.109375 1039.58984375 -1493.109375 1039.58984375 -1491.140625 1037.97265625 C-1487.00686306 1034.48805909 -1483.2623101 1030.72202799 -1479.5234375 1026.8203125 C-1477.640625 1025.09765625 -1477.640625 1025.09765625 -1475.640625 1025.09765625 C-1475.310625 1024.10765625 -1474.980625 1023.11765625 -1474.640625 1022.09765625 C-1473.07421875 1020.5546875 -1473.07421875 1020.5546875 -1471.078125 1018.91015625 C-1467.24676976 1015.67939183 -1463.75991102 1012.22885891 -1460.3046875 1008.6015625 C-1458.640625 1007.09765625 -1458.640625 1007.09765625 -1456.640625 1007.09765625 C-1456.640625 1006.43765625 -1456.640625 1005.77765625 -1456.640625 1005.09765625 C-1455.171875 1003.65234375 -1455.171875 1003.65234375 -1453.140625 1001.97265625 C-1449.52848567 998.90742534 -1446.18008481 995.69209677 -1442.890625 992.28515625 C-1440.93990931 990.38862711 -1438.94813488 988.60294583 -1436.89453125 986.8203125 C-1432.68569762 983.16396732 -1428.62317153 979.37093524 -1424.578125 975.53515625 C-1423.0861587 974.12606783 -1421.59396669 972.71721837 -1420.1015625 971.30859375 C-1419.35745117 970.60573242 -1418.61333984 969.90287109 -1417.84667969 969.17871094 C-1409.73900571 961.53043593 -1401.60000316 953.92347926 -1393.2890625 946.49609375 C-1389.25470378 942.84255945 -1385.28899211 939.11634956 -1381.31518555 935.3972168 C-1375.46178572 929.92169375 -1369.55799796 924.50394706 -1363.640625 919.09765625 C-1361.63988836 917.26512604 -1359.64028894 915.43135683 -1357.640625 913.59765625 C-1356.64323594 912.68358636 -1355.64584011 911.76952386 -1354.6484375 910.85546875 C-1352.62125731 908.9973303 -1350.5953551 907.13781146 -1348.5703125 905.27734375 C-1342.29403059 899.51308484 -1335.9933387 893.77772968 -1329.640625 888.09765625 C-1328.88394531 887.411875 -1328.12726562 886.72609375 -1327.34765625 886.01953125 C-1326.63996094 885.3853125 -1325.93226563 884.75109375 -1325.203125 884.09765625 C-1324.27693359 883.26234375 -1324.27693359 883.26234375 -1323.33203125 882.41015625 C-1321.640625 881.09765625 -1321.640625 881.09765625 -1318.640625 880.09765625 C-1318.640625 879.43765625 -1318.640625 878.77765625 -1318.640625 878.09765625 C-1317.3125 876.7578125 -1317.3125 876.7578125 -1315.390625 875.16015625 C-1311.73088488 872.05197271 -1308.16733236 868.85517049 -1304.640625 865.59765625 C-1300.69411168 861.96335544 -1296.71711627 858.37352371 -1292.65625 854.8671875 C-1291.08626065 853.4888829 -1289.53852062 852.08522012 -1288 850.671875 C-1287.09765625 849.84300781 -1286.1953125 849.01414062 -1285.265625 848.16015625 C-1284.43289063 847.38800781 -1283.60015625 846.61585938 -1282.7421875 845.8203125 C-1280.640625 844.09765625 -1280.640625 844.09765625 -1278.640625 844.09765625 C-1278.640625 843.43765625 -1278.640625 842.77765625 -1278.640625 842.09765625 C-1277.3828125 840.79296875 -1277.3828125 840.79296875 -1275.515625 839.22265625 C-1274.78472656 838.60003906 -1274.05382813 837.97742187 -1273.30078125 837.3359375 C-1272.42292969 836.59730469 -1271.54507813 835.85867188 -1270.640625 835.09765625 C-1268.40749548 833.20645482 -1266.17917601 831.30968309 -1263.953125 829.41015625 C-1263.35169678 828.89735107 -1262.75026855 828.3845459 -1262.13061523 827.85620117 C-1257.46837772 823.85902631 -1252.95459207 819.72317416 -1248.46826172 815.53076172 C-1244.24477241 811.60464707 -1239.88114818 807.87621218 -1235.45605469 804.18041992 C-1230.61498759 800.12005186 -1225.97057507 795.86660456 -1221.33203125 791.578125 C-1216.77862632 787.38159071 -1212.09854724 783.34166275 -1207.390625 779.3203125 C-1206.1821996 778.28786817 -1204.97386881 777.25531309 -1203.765625 776.22265625 C-1203.15912109 775.70429199 -1202.55261719 775.18592773 -1201.92773438 774.65185547 C-1197.50887091 770.86544481 -1193.16385826 767.00523816 -1188.8515625 763.09765625 C-1180.35667972 755.41323932 -1171.58390994 748.03748725 -1162.88037109 740.59179688 C-1161.72850058 739.60624618 -1160.57680779 738.62048774 -1159.42529297 737.63452148 C-1158.28029175 736.65427448 -1157.13478639 735.67461605 -1155.98876953 734.69555664 C-1152.80435548 731.97047617 -1149.64078762 729.22398946 -1146.49609375 726.453125 C-1145.81087646 725.85169678 -1145.12565918 725.25026855 -1144.41967773 724.63061523 C-1143.08872197 723.4610845 -1141.76127624 722.28754451 -1140.43774414 721.10961914 C-1135.86399557 717.09765625 -1135.86399557 717.09765625 -1133.640625 717.09765625 C-1133.640625 716.43765625 -1133.640625 715.77765625 -1133.640625 715.09765625 C-1132.06775816 713.68327219 -1130.42922504 712.34161224 -1128.765625 711.03515625 C-1124.95226938 707.9873976 -1121.24253691 704.89265284 -1117.640625 701.59765625 C-1113.4177994 697.75329144 -1109.05417927 694.13240091 -1104.6171875 690.5390625 C-1100.68364575 687.31273232 -1096.82945675 683.99884496 -1092.97363281 680.68041992 C-1088.51618589 676.84475894 -1084.0343607 673.03941126 -1079.54003906 669.24707031 C-1076.11476608 666.3535559 -1072.7072264 663.44037423 -1069.30859375 660.515625 C-1063.76284916 655.74314327 -1058.16537616 651.05304249 -1052.484375 646.44140625 C-1049.16375906 643.70463487 -1045.90018791 640.9065924 -1042.640625 638.09765625 C-1037.62886202 633.77950664 -1032.55844118 629.54858939 -1027.421875 625.37890625 C-1024.27678705 622.79922737 -1021.17582824 620.17133642 -1018.078125 617.53515625 C-1013.52783181 613.66518139 -1008.91229422 609.89805536 -1004.23046875 606.1875 C-1000.60931531 603.2654531 -997.07107931 600.24944139 -993.52734375 597.234375 C-989.21100496 593.56650025 -984.8358334 589.97639304 -980.44140625 586.40234375 C-977.37286506 583.8773238 -974.35029346 581.30273292 -971.328125 578.72265625 C-966.28112941 574.42069334 -961.11621513 570.29896455 -955.88061523 566.22973633 C-951.23940051 562.60699426 -946.73759809 558.84097752 -942.26049805 555.01831055 C-937.47186976 550.93443209 -932.57543748 547.00238651 -927.640625 543.09765625 C-925.86903164 541.68194014 -924.09819396 540.26527785 -922.328125 538.84765625 C-920.765625 537.59765625 -919.203125 536.34765625 -917.640625 535.09765625 C-916.31998047 533.99164062 -916.31998047 533.99164062 -914.97265625 532.86328125 C-912.640625 531.09765625 -912.640625 531.09765625 -910.640625 531.09765625 C-910.640625 530.43765625 -910.640625 529.77765625 -910.640625 529.09765625 C-909.27050781 527.8359375 -909.27050781 527.8359375 -907.34375 526.41015625 C-906.63839111 525.88147949 -905.93303223 525.35280273 -905.20629883 524.80810547 C-904.44212646 524.24365723 -903.6779541 523.67920898 -902.890625 523.09765625 C-896.63507325 518.40194217 -890.55699787 513.59511211 -884.58203125 508.546875 C-881.3983434 505.8959158 -878.15718982 503.33255693 -874.890625 500.78515625 C-869.75773745 496.78174625 -864.68316659 492.7142766 -859.640625 488.59765625 C-854.12175858 484.09357899 -848.55856622 479.65527302 -842.94287109 475.27270508 C-837.67544881 471.15092841 -832.48889135 466.932377 -827.3203125 462.6875 C-823.47256755 459.53934504 -819.55850479 456.50895081 -815.56933594 453.54223633 C-812.65721528 451.36109481 -809.80574654 449.10570328 -806.953125 446.84765625 C-802.37178989 443.23393071 -797.77240668 439.64649036 -793.140625 436.09765625 C-788.61520944 432.62938768 -784.1188096 429.12669065 -779.640625 425.59765625 C-773.53971193 420.79125934 -767.39620288 416.04311361 -761.23193359 411.31835938 C-758.61524722 409.31108231 -756.00341961 407.29749496 -753.390625 405.28515625 C-747.58392811 400.81607187 -741.76333714 396.3652459 -735.94067383 391.91699219 C-731.64462051 388.63396302 -727.35802131 385.33921499 -723.078125 382.03515625 C-716.39011783 376.88671508 -709.6376718 371.82632886 -702.87841797 366.77197266 C-698.79627186 363.71771147 -694.71882618 360.65718162 -690.640625 357.59765625 C-688.93751943 356.32028659 -687.23439463 355.04294258 -685.53125 353.765625 C-684.70689453 353.1473584 -683.88253906 352.5290918 -683.03320312 351.89208984 C-680.81380208 350.22753906 -678.59440104 348.56298828 -676.375 346.8984375 C-675.37666138 346.14965332 -675.37666138 346.14965332 -674.3581543 345.38574219 C-673.05500989 344.4084243 -671.75178825 343.43120938 -670.44848633 342.45410156 C-667.12395877 339.96144225 -663.80102148 337.46670247 -660.48046875 334.96875 C-653.92791046 330.04185863 -647.36244901 325.13968993 -640.71875 320.3359375 C-636.65619936 317.3818239 -632.61854615 314.39442973 -628.578125 311.41015625 C-620.05146712 305.11783282 -611.47491022 298.8975499 -602.87451172 292.70654297 C-599.87847695 290.54874307 -596.88542349 288.38682984 -593.89257812 286.22460938 C-591.64357192 284.59978529 -589.3940523 282.9756737 -587.14453125 281.3515625 C-584.12969981 279.17436602 -581.11687806 276.99442708 -578.10546875 274.8125 C-568.70607571 268.00576359 -559.26019451 261.27008213 -549.76708984 254.59472656 C-547.59393804 253.06478777 -545.42352293 251.53104101 -543.25390625 249.99609375 C-535.81647082 244.73502398 -528.36471335 239.4976126 -520.86328125 234.328125 C-514.79183077 230.12594533 -508.7513855 225.8793903 -502.7109375 221.6328125 C-494.70504285 216.00795385 -486.70400107 210.38730826 -478.5324707 205.00463867 C-475.8195156 203.21562286 -473.11340726 201.41691815 -470.41015625 199.61328125 C-469.36102051 198.91348145 -468.31188477 198.21368164 -467.23095703 197.49267578 C-466.37090057 196.91891205 -466.37090057 196.91891205 -465.49346924 196.33355713 C-462.03648564 194.02764875 -458.5787208 191.72291212 -455.12109375 189.41796875 C-453.58788747 188.39583806 -452.05468439 187.37370258 -450.52148438 186.3515625 C-447.40429687 184.2734375 -444.28710938 182.1953125 -441.16992188 180.1171875 C-440.40674652 179.60838043 -439.64357117 179.09957336 -438.85726929 178.5753479 C-437.32840596 177.55615304 -435.79945535 176.5370891 -434.27041626 175.51815796 C-430.70931388 173.14487575 -427.14941303 170.7698559 -423.59326172 168.38916016 C-415.91152716 163.24955579 -408.18560302 158.18970935 -400.390625 153.22265625 C-399.31780273 152.53776123 -398.24498047 151.85286621 -397.13964844 151.1472168 C-393.97480984 149.12832489 -390.80821356 147.11223028 -387.640625 145.09765625 C-386.76792969 144.54255371 -385.89523437 143.98745117 -384.99609375 143.41552734 C-326.67200953 106.35833907 -267.1578776 70.74258929 -205.07763672 40.29541016 C-203.26223089 39.40316602 -201.44911499 38.50625972 -199.63720703 37.60693359 C-50.44810045 -36.34352799 -50.44810045 -36.34352799 0 0 Z " fill="#82C0AB" transform="translate(3670.640625,1025.90234375)"/>
<path d="M0 0 C0.75703942 1.00073263 0.75703942 1.00073263 1.52937257 2.02168208 C4.65551478 5.79021685 8.06339573 9.19922556 11.53003883 12.65308666 C12.29551155 13.41971322 13.06098427 14.18633978 13.84965312 14.97619745 C16.42715219 17.55635314 19.00821629 20.13291288 21.58926392 22.70951843 C23.4517897 24.57248011 25.31411592 26.43563934 27.17619932 28.299043 C31.23123001 32.35614689 35.2881148 36.41138934 39.3462162 40.46542168 C45.38056847 46.4937401 51.41205253 52.5249221 57.44294955 58.55669701 C67.58835738 68.70341902 77.73609209 78.8478109 87.88515091 88.99088097 C97.93648882 99.03630301 107.98679304 109.0827574 118.03571701 119.13059425 C118.6603942 119.7552027 119.28507139 120.37981115 119.92867819 121.02334713 C123.10109574 124.19542635 126.27349481 127.36752404 129.44588678 130.53962884 C151.92188595 153.01352707 174.40020309 175.48510558 196.87988281 197.95532227 C218.71471413 219.78097262 240.54849748 241.60767046 262.38085938 263.43579102 C263.05358636 264.10838647 263.72631334 264.78098193 264.419426 265.47395907 C271.17540331 272.22861783 277.93135927 278.98329796 284.68729955 285.73799376 C298.45533998 299.50349715 312.2235224 313.26885851 325.99179077 327.03413391 C326.6249887 327.66719455 327.25818662 328.30025518 327.91057236 328.95249947 C366.25714663 367.29072994 404.60649694 405.62618348 442.956411 443.9610731 C443.76637188 444.77071687 444.57633275 445.58036064 445.41083789 446.41453907 C446.90551078 447.90862474 448.40018561 449.40270847 449.89486277 450.89678988 C450.86977404 451.87131681 450.86977404 451.87131681 451.86438048 452.86553115 C452.42595165 453.42687858 452.98752282 453.98822601 453.5661113 454.56658397 C454.71085075 455.71094607 455.85544921 456.85544921 457 458 C452.28766097 462.81051276 447.53241316 467.47843951 442.421875 471.86328125 C439.09300012 474.80020796 435.86291867 477.83847531 432.625 480.875 C427.6190347 485.56682454 422.58130536 490.21354246 417.46484375 494.78515625 C414.5810446 497.3764623 411.72772565 499.9996044 408.875 502.625 C404.96032621 506.22418301 401.00971857 509.77372954 396.9921875 513.2578125 C394.63979365 515.31500399 392.31965034 517.40596915 390 519.5 C382.9701193 525.83754397 375.81704952 532.02193263 368.62597656 538.17504883 C364.23619317 541.93349649 359.86405802 545.71172762 355.5 549.5 C345.70062971 558.00032198 335.90781551 566.49131802 325.83203125 574.6640625 C322.57327481 577.35197471 319.38131517 580.11063121 316.1875 582.875 C311.03010646 587.32808918 305.76874968 591.60859082 300.38696289 595.78686523 C295.90787506 599.26797978 291.5107149 602.83975596 287.125 606.4375 C280.65674273 611.7248403 274.04731275 616.7830877 267.33984375 621.76171875 C263.23298834 624.81337372 259.16978138 627.92025293 255.1081543 631.03173828 C243.01919717 640.29040004 230.72739589 649.16453083 218.1875 657.80078125 C216.11943499 659.22764473 214.0565861 660.6621095 212 662.10546875 C202.99381422 668.41209629 193.79908641 674.4114168 184.55224609 680.35791016 C182.90515702 681.41763095 181.25953713 682.4796404 179.61572266 683.54443359 C159.44271502 696.60306267 138.44114691 708.16385669 117 719 C116.19675293 719.40702148 115.39350586 719.81404297 114.56591797 720.23339844 C66.13147024 744.55766539 8.23047797 761.18644371 -45.32958984 744.74658203 C-61.74282915 739.30343238 -77.07372894 731.19737881 -91 721 C-92.52753906 719.90945313 -92.52753906 719.90945313 -94.0859375 718.796875 C-101.53321296 713.36290498 -108.50473237 707.41760138 -115.44042969 701.35546875 C-116.83756629 700.14117595 -118.24987276 698.94438899 -119.6640625 697.75 C-120.39367188 697.13125 -121.12328125 696.5125 -121.875 695.875 C-122.49117187 695.35679687 -123.10734375 694.83859375 -123.7421875 694.3046875 C-125 693 -125 693 -125 691 C-125.86286621 690.62391602 -125.86286621 690.62391602 -126.74316406 690.24023438 C-129.30441196 688.83271173 -131.04057392 687.21829975 -133.109375 685.15625 C-133.86347656 684.40472656 -134.61757812 683.65320312 -135.39453125 682.87890625 C-136.17183594 682.09386719 -136.94914062 681.30882813 -137.75 680.5 C-138.54277344 679.71496094 -139.33554688 678.92992188 -140.15234375 678.12109375 C-140.90128906 677.36957031 -141.65023438 676.61804687 -142.421875 675.84375 C-143.10862305 675.15474609 -143.79537109 674.46574219 -144.50292969 673.75585938 C-146 672 -146 672 -146 670 C-147.32 669.34 -148.64 668.68 -150 668 C-150 667.34 -150 666.68 -150 666 C-150.99 665.67 -151.98 665.34 -153 665 C-154.45013428 663.53109741 -154.45013428 663.53109741 -156.02246094 661.61083984 C-160.61507769 656.2028422 -165.62089168 651.23442856 -170.640625 646.2265625 C-171.65491046 645.21160183 -172.66904757 644.19649289 -173.68304443 643.1812439 C-175.79261234 641.07021262 -177.90395078 638.96097323 -180.01660156 636.85302734 C-182.72231339 634.15304882 -185.42346082 631.44855516 -188.12332535 628.74273109 C-190.20958039 626.65286476 -192.29820834 624.56538307 -194.38756561 622.47861862 C-195.38504133 621.4818087 -196.38177829 620.48425894 -197.37775421 619.48595047 C-198.76536652 618.09579835 -200.15652937 616.70919301 -201.54785156 615.32275391 C-202.33726135 614.53413971 -203.12667114 613.74552551 -203.94000244 612.93301392 C-206.04646486 610.8499659 -206.04646486 610.8499659 -209 609 C-209 608.34 -209 607.68 -209 607 C-209.66 607 -210.32 607 -211 607 C-211 606.34 -211 605.68 -211 605 C-211.85609863 604.63068359 -211.85609863 604.63068359 -212.72949219 604.25390625 C-215.3784281 602.79101003 -217.18548546 601.07354681 -219.328125 598.9375 C-220.12734375 598.14085938 -220.9265625 597.34421875 -221.75 596.5234375 C-222.575 595.69070313 -223.4 594.85796875 -224.25 594 C-225.09046875 593.16726563 -225.9309375 592.33453125 -226.796875 591.4765625 C-227.5909375 590.67992188 -228.385 589.88328125 -229.203125 589.0625 C-229.93176758 588.33160156 -230.66041016 587.60070313 -231.41113281 586.84765625 C-233 585 -233 585 -233 583 C-233.8971875 582.60554688 -233.8971875 582.60554688 -234.8125 582.203125 C-237.12698468 580.93015843 -238.31626502 579.7669742 -240 577.75 C-240.90298828 576.67878906 -240.90298828 576.67878906 -241.82421875 575.5859375 C-242.54222656 574.73257813 -243.26023437 573.87921875 -244 573 C-244.9211325 571.94872584 -245.84445865 570.89937123 -246.76953125 569.8515625 C-279.80458575 532.26180525 -295.26434859 492.03806029 -293 442 C-289.61952152 392.9752369 -265.97516856 345.19764942 -241.47216797 303.50878906 C-240.0853182 301.14539466 -238.71548251 298.77287369 -237.34765625 296.3984375 C-223.60789651 272.79955626 -207.86969 250.20490531 -192 228 C-191.16782959 226.83210938 -191.16782959 226.83210938 -190.31884766 225.640625 C-183.39920423 215.94163439 -176.31946287 206.40048662 -169 197 C-167.76726122 195.39743958 -166.53758603 193.79256095 -165.30810547 192.1875 C-156.38102026 180.54134572 -147.27071216 169.05480526 -137.99609375 157.68359375 C-135.60003947 154.74396592 -133.2306009 151.78469991 -130.875 148.8125 C-127.38013861 144.42736866 -123.76584807 140.15124598 -120.13183594 135.8815918 C-117.25350579 132.49593365 -114.42183119 129.07870163 -111.625 125.625 C-106.98380567 119.92485224 -102.16726107 114.38579373 -97.33984375 108.84375 C-94.11945263 105.14512003 -90.93304005 101.41826432 -87.75 97.6875 C-83.57493177 92.80095774 -79.33044795 87.98724424 -75.01171875 83.2265625 C-73.15265331 81.16895609 -71.32071642 79.09153237 -69.5 77 C-66.10505061 73.10209515 -62.64334116 69.26652943 -59.1796875 65.4296875 C-57.30854906 63.3439382 -55.46075169 61.24182372 -53.625 59.125 C-50.16945208 55.15513797 -46.6061603 51.28657757 -43.04077148 47.41577148 C-40.54917687 44.70599721 -38.0886169 41.97765863 -35.6875 39.1875 C-31.67377288 34.55478846 -27.4560165 30.11272349 -23.265625 25.640625 C-18.44153507 20.48738608 -13.7004701 15.26626743 -9 10 C-7.31321479 8.12435694 -5.62572404 6.24934811 -3.9375 4.375 C-2.80634766 3.11816406 -2.80634766 3.11816406 -1.65234375 1.8359375 C-1.10707031 1.23007813 -0.56179688 0.62421875 0 0 Z " fill="#82C0AB" transform="translate(1917,2327)"/>
<path d="M0 0 C3.6456322 2.25522051 6.46196335 5.13434651 9.43360901 8.20414734 C10.31547676 9.07464857 11.1973445 9.94514981 12.10593551 10.84202987 C14.53597883 13.25077223 16.94170912 15.67981405 19.33960354 18.12031114 C21.93558578 20.75136533 24.56043489 23.35334783 27.18174744 25.9591217 C32.30656931 31.06263052 37.40441562 36.19228943 42.49362958 41.33128037 C48.42222326 47.31579759 54.37738436 53.27358134 60.33382463 59.23036144 C70.95988667 69.8587967 81.56199365 80.51080834 92.15063477 91.17651367 C102.4244935 101.52509698 112.71434218 111.85741501 123.02270508 122.17163086 C123.65790137 122.80719277 124.29309766 123.44275468 124.94754232 124.09757604 C125.58164696 124.73203863 126.21575161 125.36650122 126.86907154 126.02018994 C128.14580983 127.29765906 129.42254116 128.57513514 130.69926548 129.85261822 C131.3289096 130.48263337 131.95855372 131.11264851 132.60727796 131.76175503 C142.43307895 141.59469648 152.24397936 151.44249601 162.0534177 161.29175692 C165.60824403 164.86062474 169.16530232 168.42725053 172.72399796 171.99225988 C178.36742367 177.6457842 184.0043734 183.30559307 189.62797774 188.97884025 C192.19750719 191.57080927 194.77004575 194.1595813 197.35129166 196.73988724 C200.14824179 199.53610721 202.92947986 202.34762303 205.70924377 205.16093445 C206.93824468 206.3826901 206.93824468 206.3826901 208.19207388 207.62912768 C215.03899768 214.60633596 215.03899768 214.60633596 216 220 C215.79992059 227.42071162 213.07901932 234.00897754 210.5390625 240.91796875 C210.07636931 242.19528571 209.61444387 243.47288101 209.15322876 244.75073242 C208.1677061 247.47641213 207.17706951 250.20015432 206.18225098 252.92245483 C204.60381398 257.24195814 203.03682354 261.56555784 201.47167969 265.88989258 C199.60189042 271.05386425 197.72965313 276.21693321 195.85391998 281.37874889 C191.66867588 292.89726761 187.52905458 304.43188991 183.40093994 315.9710083 C181.85341464 320.29582326 180.3035176 324.6197867 178.75363159 328.9437561 C177.59986628 332.1626238 176.44636982 335.38158771 175.29296875 338.60058594 C174.91446777 339.65693237 174.5359668 340.71327881 174.14599609 341.80163574 C173.57872803 343.38482605 173.57872803 343.38482605 173 345 C169.9170218 353.60429396 166.83380141 362.20850104 163.75 370.8125 C163.17131165 372.4270961 163.17131165 372.4270961 162.58093262 374.0743103 C157.84585419 387.28456948 153.10575191 400.49301542 148.359375 413.69921875 C147.99980776 414.69967696 147.99980776 414.69967696 147.63297653 415.72034645 C145.19150225 422.5133129 142.74957649 429.30611687 140.30698967 436.09868336 C135.40571154 449.7289325 130.50986427 463.36106072 125.6328125 477 C124.77800233 479.38932561 123.92318477 481.77864858 123.06835938 484.16796875 C121.50254538 488.54485767 119.93902803 492.92255673 118.37695312 497.30078125 C116.62556172 502.20377089 114.86244398 507.10237209 113.0880127 511.99707031 C112.32901848 514.09190456 111.57262981 516.18768388 110.8182373 518.28417969 C109.62591232 521.58906519 108.42011545 524.88874838 107.2109375 528.1875 C106.84843903 529.1978833 106.48594055 530.2082666 106.11245728 531.24926758 C103.62820455 537.96657556 101.66824744 542.86281693 94.97387695 546.11791992 C93.31804273 546.83616967 91.65564851 547.53941441 89.98828125 548.23046875 C89.08502609 548.61809891 88.18177094 549.00572906 87.25114441 549.40510559 C84.27679009 550.6784835 81.29473613 551.93270651 78.3125 553.1875 C76.22069766 554.07984282 74.12955966 554.97374442 72.0390625 555.86914062 C67.75809576 557.70201293 63.47479447 559.52926065 59.18994141 561.35302734 C51.08994479 564.80808456 43.03029642 568.35319381 34.97396851 571.90859985 C30.78661774 573.75586478 26.59660981 575.59707288 22.40625 577.4375 C21.56486984 577.807043 20.72348969 578.176586 19.85661316 578.55732727 C8.60932045 583.49309078 -2.65973367 588.37887986 -13.92626953 593.27050781 C-27.46461498 599.14926788 -40.98940365 605.05775443 -54.5 611 C-69.95744197 617.79850938 -85.43676993 624.54538217 -100.92626953 631.27050781 C-114.46461498 637.14926788 -127.98940365 643.05775443 -141.5 649 C-156.9520746 655.7961487 -172.42593038 662.54090755 -187.91015625 669.26345825 C-202.65261305 675.6647637 -217.37685759 682.10633498 -232.08935547 688.57617188 C-243.90161041 693.77005345 -255.72902811 698.92608141 -267.57421875 704.04443359 C-277.90001203 708.51147359 -288.20121238 713.03359698 -298.5 717.5625 C-313.31748724 724.07840574 -328.15209713 730.55371197 -343 737 C-357.51409268 743.30155747 -372.01597945 749.62962192 -386.5 756 C-401.95744197 762.79850938 -417.43676993 769.54538217 -432.92626953 776.27050781 C-446.46461612 782.14926837 -459.98931478 788.05795497 -473.5 794 C-490.15973211 801.32621506 -506.83417422 808.61834399 -523.53759766 815.84448242 C-535.34366725 820.95299617 -535.34366725 820.95299617 -547.09242249 826.19148254 C-549.88005838 827.45323017 -552.67308842 828.70276718 -555.46646118 829.95175171 C-557.30764363 830.78212237 -559.13975302 831.63252134 -560.97143555 832.48364258 C-567.22363401 835.27344056 -571.29550659 836.83881704 -578 835 C-579.3449752 834.35714393 -580.68141775 833.695387 -582 833 C-582.63807981 828.8161413 -582.32693139 824.99925305 -579.93496786 821.39534375 C-576.1553307 816.72421651 -571.79353255 812.5716644 -567.52128601 808.35824585 C-566.0668867 806.89132645 -564.61445094 805.42245809 -563.1638158 803.9518162 C-559.17323373 799.91781363 -555.15499897 795.9123866 -551.13162458 791.91112542 C-546.79689542 787.59057047 -542.48809922 783.24428423 -538.17585754 778.90130615 C-530.21283994 770.88965196 -522.22931768 762.8988744 -514.23456262 754.9189262 C-506.84858463 747.54662081 -499.47039766 740.16663394 -492.09995461 732.77879715 C-491.11119057 731.78776251 -490.1224252 730.7967292 -489.1336585 729.80569721 C-487.64368338 728.3122865 -486.15371529 726.81886878 -484.66376866 725.32542964 C-470.81213638 711.44168393 -456.95155503 697.56692377 -443.07200909 683.71108055 C-442.54884519 683.18880818 -442.0256813 682.6665358 -441.48666395 682.12843699 C-437.23817003 677.88728986 -432.98943234 673.64638694 -428.74067663 669.40550207 C-412.16628169 652.8614174 -395.61980743 636.28986832 -379.09545898 619.69580078 C-360.52882532 601.05095822 -341.94250227 582.42607972 -323.32605773 563.83096278 C-321.34132425 561.84837748 -319.35665325 559.86572964 -317.37201881 557.8830452 C-316.88333912 557.39487493 -316.39465943 556.90670466 -315.89117126 556.40374136 C-308.51372153 549.03320154 -301.15182224 541.64736629 -293.79755211 534.25370407 C-285.43446382 525.84590011 -277.05005131 517.46003917 -268.63839724 509.10076194 C-264.34624267 504.83420215 -260.06434189 500.55853048 -255.80790329 496.25631332 C-251.9117052 492.31873212 -247.98891788 488.40986583 -244.04300068 484.52212842 C-242.61984182 483.11029981 -241.20674467 481.68824136 -239.80492743 480.25522022 C-228.01296187 468.21961007 -228.01296187 468.21961007 -220.27462482 468.07953835 C-215.95612934 468.56081135 -212.75024467 469.62079148 -209.1875 472.1875 C-192.29287046 483.11151439 -170.84339502 485.33850604 -151.3125 481.875 C-130.09543604 477.00142227 -111.35884353 465.16601098 -99 447 C-86.33779317 426.45466163 -81.68854393 403.6344589 -86.96484375 379.94921875 C-90.95599893 363.88551276 -99.45589766 350.77045729 -111 339 C-111.88365234 338.07960938 -111.88365234 338.07960938 -112.78515625 337.140625 C-129.26412431 321.34978967 -151.81934147 316.32492933 -173.89453125 316.66796875 C-195.1600324 317.4767834 -213.29594827 327.08949512 -228 342 C-228.65097656 342.56976562 -229.30195312 343.13953125 -229.97265625 343.7265625 C-241.80576506 354.23889151 -249.22937183 372.48320475 -251 388 C-252.23188997 410.03592512 -249.40365019 428.39452472 -237 447 C-236.57324862 453.61464636 -236.99159652 457.69065714 -241.50197929 462.87687612 C-242.57197258 463.96214041 -243.65030102 465.03922448 -244.73503017 466.10976028 C-245.33074661 466.70953745 -245.92646305 467.30931461 -246.5402315 467.92726684 C-248.54762048 469.9446387 -250.56557109 471.95110324 -252.58360291 473.95782471 C-254.03575904 475.41272013 -255.48725885 476.86827089 -256.93815619 478.32442164 C-260.93445325 482.3313333 -264.94008938 486.32879464 -268.94728649 490.32480145 C-273.26425991 494.63295228 -277.5726054 498.94971619 -281.8820343 503.26541138 C-289.83963893 511.23196754 -297.80401565 519.19170566 -305.77183166 527.14804492 C-313.13120457 534.4968893 -320.4875808 541.84871759 -327.84100533 549.2035141 C-328.32842654 549.69101934 -328.81584775 550.17852459 -329.3180393 550.68080272 C-331.29652656 552.6596422 -333.27499792 554.63849757 -335.25344662 556.6173756 C-353.81816653 575.1860619 -372.39122132 593.74639071 -390.96830468 612.3027071 C-407.48257828 628.79860649 -423.9905575 645.30077861 -440.49291992 661.80859375 C-441.55271853 662.86873879 -442.6125173 663.92888366 -443.67231625 664.98902836 C-444.19625442 665.51313753 -444.72019259 666.03724669 -445.26000767 666.57723796 C-447.89729901 669.2153828 -450.53460521 671.85351279 -453.17192745 674.49162674 C-453.69220061 675.01205698 -454.21247376 675.53248721 -454.74851277 676.06868806 C-468.52850926 689.85267173 -482.31323265 703.63192639 -496.09947497 717.40966296 C-497.58228879 718.89156972 -499.06510191 720.37347719 -500.54791346 721.85538623 C-501.53161808 722.83848973 -502.51532645 723.82158949 -503.4990386 724.80468546 C-510.36511543 731.66653609 -517.22936283 738.53021205 -524.09237522 745.39512757 C-532.93426292 754.23945485 -541.77948703 763.08042208 -550.63028877 771.91583112 C-554.90042197 776.17869919 -559.16892632 780.44316565 -563.43315506 784.71194077 C-567.3314876 788.61432857 -571.23435806 792.51211535 -575.14101226 796.40617189 C-576.55862368 797.82083827 -577.97452816 799.23721748 -579.38860964 800.65541235 C-581.30090327 802.57276578 -583.21915816 804.48394295 -585.13912868 806.39360428 C-585.69540554 806.95427762 -586.2516824 807.51495097 -586.82481614 808.09261441 C-589.76770386 811.00517828 -591.75449996 812.89266252 -596.04296875 813.09765625 C-597.10451172 813.08025391 -597.10451172 813.08025391 -598.1875 813.0625 C-599.445625 813.041875 -600.70375 813.02125 -602 813 C-604.2846666 809.23486464 -605.57224551 805.45900704 -604.54663086 801.05181885 C-602.58101823 795.28073572 -599.86394673 789.81052815 -597.25 784.3125 C-596.41080381 782.48737191 -595.57500041 780.66068036 -594.74243164 778.83251953 C-593.02251485 775.06199682 -591.28891219 771.29824537 -589.54541016 767.53857422 C-586.06524588 760.0040374 -582.76698477 752.39233088 -579.47525024 744.77407837 C-577.72871468 740.73642507 -575.96886003 736.70458007 -574.2109375 732.671875 C-573.50869624 731.05928521 -572.80654769 729.44665504 -572.10449219 727.83398438 C-571.75721069 727.03629639 -571.4099292 726.2386084 -571.05212402 725.41674805 C-570.7049231 724.61922119 -570.35772217 723.82169434 -570 723 C-567.18824298 716.54134291 -564.37596413 710.08291366 -561.5625 703.625 C-561.21239868 702.82134003 -560.86229736 702.01768005 -560.50158691 701.18966675 C-554.71603167 687.91142219 -548.89643049 674.64832548 -543.06716919 661.38922119 C-537.00962049 647.60801457 -530.99544368 633.80832754 -525 620 C-518.63499219 605.34051567 -512.24455143 590.69269691 -505.8125 576.0625 C-500.0005306 562.84212952 -494.20518347 549.61475688 -488.4375 536.375 C-488.08804321 535.57287079 -487.73858643 534.77074158 -487.37854004 533.94430542 C-484.91823267 528.29654927 -482.45898451 522.64833221 -480 517 C-477.18824298 510.54134291 -474.37596413 504.08291366 -471.5625 497.625 C-471.03734802 496.41951004 -471.03734802 496.41951004 -470.50158691 495.18966675 C-464.71603167 481.91142219 -458.89643049 468.64832548 -453.06716919 455.38922119 C-446.58199266 440.63514127 -440.14883251 425.85883609 -433.73031616 411.07565308 C-427.48704166 396.6978444 -421.20620602 382.33709883 -414.89550781 367.98876953 C-408.89418912 354.34146361 -402.93745649 340.67520174 -397 327 C-390.6350379 312.34049599 -384.24455132 297.69269666 -377.8125 283.0625 C-372.0005306 269.84212952 -366.20518347 256.61475688 -360.4375 243.375 C-359.91331482 242.17180618 -359.91331482 242.17180618 -359.37854004 240.94430542 C-356.91823267 235.29654927 -354.45898451 229.64833221 -352 224 C-346.71418587 211.85838867 -341.42428468 199.71857692 -336.12670898 187.58209229 C-334.95035591 184.88623006 -333.77493222 182.18996386 -332.59960938 179.49365234 C-330.56710217 174.83177111 -328.53100344 170.17147175 -326.49264526 165.512146 C-325.71804532 163.74020682 -324.94451133 161.9678012 -324.17214966 160.19488525 C-310.69473062 129.26574156 -310.69473062 129.26574156 -301.41796875 125.36328125 C-299.70975952 124.6347998 -299.70975952 124.6347998 -297.96704102 123.89160156 C-297.35466583 123.63576294 -296.74229065 123.37992432 -296.11135864 123.11633301 C-294.13421723 122.29023722 -292.16222319 121.45279813 -290.19116211 120.61230469 C-288.0572907 119.70261026 -285.92310008 118.79373968 -283.78742981 117.88827515 C-276.0037082 114.58758678 -268.25609253 111.20534159 -260.50924683 107.81921387 C-256.36005092 106.00603984 -252.20920299 104.19665449 -248.05859375 102.38671875 C-247.22544144 102.02329376 -246.39228912 101.65986877 -245.53388977 101.28543091 C-239.78527683 98.77791254 -234.03549918 96.27307944 -228.28515625 93.76953125 C-211.4907132 86.45657509 -194.70667578 79.12072827 -177.9375 71.75 C-165.0724194 66.09538447 -152.19613067 60.46889538 -139.29785156 54.89038086 C-129.2544618 50.54621624 -119.21888246 46.18432135 -109.1875 41.8125 C-108.37320526 41.45763519 -107.55891052 41.10277039 -106.71994019 40.7371521 C-92.91800543 34.72082824 -79.13124994 28.67024267 -65.34780884 22.61169434 C-33.82380683 8.75724676 -33.82380683 8.75724676 -20.68652344 3.18017578 C-19.11447296 2.48958218 -17.55567894 1.7634494 -16.04003906 0.95654297 C-10.77418574 -1.79740212 -5.61094977 -1.46630492 0 0 Z " fill="#616E7E" transform="translate(1592,2878)"/>
<path d="M0 0 C2.82156808 0.86402779 4.02451072 1.73696946 6.09200302 3.80593304 C7.07917723 4.77923916 7.07917723 4.77923916 8.08629436 5.77220802 C8.79718004 6.49331591 9.50806572 7.2144238 10.24049339 7.95738344 C11.392067 9.10158459 11.392067 9.10158459 12.56690473 10.26890092 C15.15800841 12.84833918 17.73450767 15.44189734 20.31140003 18.03552751 C22.17642774 19.89809666 24.04223212 21.75985661 25.90902284 23.62065558 C29.9770375 27.6788251 34.03753883 31.74439361 38.09325657 35.81485109 C44.12424803 41.86770033 50.16662722 47.90908384 56.21140303 53.94816328 C66.37978009 64.10762855 76.53873683 74.27646497 86.69232235 84.45071153 C96.75126333 94.53008865 106.81410426 104.60554458 116.8822752 114.67570238 C117.82083202 115.61445395 117.82083202 115.61445395 118.77834958 116.5721702 C121.31815528 119.11247582 123.85799095 121.65275147 126.39786552 124.19298823 C149.55696922 147.35539675 172.70652898 170.52731957 195.85008106 193.70526628 C217.70575656 215.59340703 239.56702463 237.47594024 261.435042 259.35175066 C262.10856539 260.02551709 262.78208877 260.69928352 263.47602196 261.39346711 C266.8683524 264.7870196 270.26069221 268.18056272 273.65303546 271.5741024 C274.65713443 272.57855577 274.65713443 272.57855577 275.68151822 273.60330113 C277.03131521 274.95357229 278.3811142 276.30384144 279.7309152 277.65410857 C301.21911203 299.14977725 322.70315444 320.64959759 344.18611088 342.15050343 C350.47868024 348.44831952 356.77140104 354.74598415 363.06450829 361.04326276 C376.30205669 374.28969004 389.53821874 387.53749679 402.76968209 400.7900026 C408.24327319 406.27223521 413.71759908 411.75372842 419.19415912 417.23299532 C423.73333711 421.77442391 428.27085942 426.31749807 432.80610635 430.86285254 C435.09038132 433.15212525 437.37569939 435.44033871 439.66265629 437.72693266 C442.12410453 440.1882561 444.58248933 442.65259869 447.04009971 445.11775331 C448.10993998 446.18536815 448.10993998 446.18536815 449.20139319 447.27455096 C452.54770349 450.63756285 455.70796705 453.99720791 458.57737598 457.78925066 C456.98798173 461.72139367 454.41395097 464.11945412 451.38987598 467.03925066 C448.3095665 470.02047326 445.37450207 472.99086777 442.60165272 476.25859575 C437.71552366 481.86567065 432.43056704 487.07601736 427.169417 492.32660417 C426.02846354 493.46891516 424.88772238 494.61143822 423.74717579 495.75415544 C420.66889956 498.83696416 417.58750032 501.91663298 414.50536713 504.99558501 C411.26850237 508.22990446 408.03409359 511.46667852 404.79928455 514.70305376 C399.36830616 520.13584752 393.9352318 525.56653849 388.50095997 530.99603777 C382.23306258 537.25849376 375.96877558 543.52454386 369.70635143 549.79247271 C364.31349705 555.18987623 358.9186824 560.58531461 353.52224735 565.97913812 C350.30619189 569.19364071 347.09080121 572.40880046 343.87718258 575.62573938 C340.85477027 578.65105663 337.82989101 581.67388608 334.80315265 584.69487505 C333.69781311 585.798901 332.59330751 586.90376267 331.48973522 588.00955515 C326.19260233 593.31635524 320.8812285 598.55806841 315.16838608 603.42197828 C312.97728628 605.30495202 310.94648421 607.3242268 308.92112598 609.38300066 C307.72809864 610.58762956 307.72809864 610.58762956 306.51096973 611.81659441 C305.70788379 612.63257097 304.90479786 613.44854753 304.07737598 614.28925066 C299.00773638 619.44026489 293.9157561 624.45004799 288.43089161 629.15839128 C285.50632196 631.73164276 282.79844683 634.50431279 280.07737598 637.28925066 C276.01331145 641.40472946 271.9033953 645.35701773 267.48753223 649.09784441 C264.35851092 651.86853199 261.47044316 654.87620282 258.55784473 657.87128191 C256.57737598 659.78925066 256.57737598 659.78925066 253.57737598 661.78925066 C250.20183623 661.47122888 248.52664164 660.11437483 246.17478207 657.76615624 C245.18690699 656.7907 245.18690699 656.7907 244.17907483 655.79553758 C243.46252855 655.07282534 242.74598227 654.35011311 242.00772247 653.6055005 C241.23797422 652.84101136 240.46822597 652.07652222 239.67515201 651.28886674 C237.07358057 648.70135477 234.48291158 646.10318962 231.89199695 643.50500993 C230.01992591 641.63853881 228.14727434 639.77266724 226.27389852 637.90750746 C222.18963266 633.83872759 218.11102478 629.7643432 214.0360342 625.68627481 C207.97652921 619.62220424 201.90854339 613.56667387 195.83889437 607.51275885 C184.37002064 596.07293454 172.91147951 584.62279775 161.45626366 573.16929932 C152.61316222 564.32757504 143.76766967 555.48824979 134.92047939 546.65061693 C132.37645178 544.10928182 129.83243569 541.56793517 127.28842298 539.02658515 C126.33983196 538.07898885 126.33983196 538.07898885 125.37207749 537.11224919 C107.57879331 519.33743337 89.78882832 501.55930111 72.00544128 483.77458315 C71.33464443 483.10373956 70.66384758 482.43289597 69.97272355 481.74172379 C66.57262438 478.34137529 63.17254911 474.94100289 59.77247911 471.54062523 C59.09717561 470.86526189 58.4218721 470.18989855 57.72610485 469.49406965 C56.360477 468.12832048 54.99485119 466.76256928 53.62922741 465.39681603 C32.37223889 444.13798838 11.10309957 422.89138326 -10.17530956 401.65399675 C-34.06419833 377.81114406 -57.94297824 353.95822963 -81.80746516 330.09095149 C-84.3498774 327.54831535 -86.89232853 325.0057181 -89.43480625 322.46314745 C-90.06085484 321.83706389 -90.68690343 321.21098034 -91.33192319 320.56592456 C-101.42609137 310.47166389 -111.52987131 300.38707704 -121.63697757 290.30577293 C-131.78560522 280.18251917 -141.92303493 270.0481587 -152.04909361 259.90232892 C-158.07198839 253.86831038 -164.10312892 247.8428139 -170.14622444 241.82902511 C-174.17604097 237.81711115 -178.19496545 233.7945068 -182.20500883 229.76282922 C-184.49408659 227.46202392 -186.78932901 225.16803275 -189.09468663 222.88352348 C-191.57117993 220.4279623 -194.02875945 217.95495033 -196.48217621 215.47636537 C-197.21042832 214.7630178 -197.93868043 214.04967023 -198.68900078 213.31470607 C-199.33506658 212.65438784 -199.98113238 211.99406961 -200.64677593 211.31374173 C-201.21131073 210.74947159 -201.77584554 210.18520145 -202.35748746 209.60383222 C-203.42262402 207.78925066 -203.42262402 207.78925066 -203.18232668 205.18930078 C-202.31410538 202.44641895 -201.27936067 201.1086372 -199.28981152 199.04706316 C-198.64785839 198.37288347 -198.00590527 197.69870378 -197.34449902 197.00409441 C-196.66903027 196.31444597 -195.99356152 195.62479753 -195.29762402 194.91425066 C-194.31922558 193.89137956 -194.31922558 193.89137956 -193.32106152 192.84784441 C-189.59661526 188.96821289 -185.8071475 185.15698103 -181.97609081 181.38275652 C-180.35810487 179.72306859 -178.8544993 177.99799357 -177.36012402 176.22675066 C-173.37576715 171.59188654 -169.02538906 167.33719787 -164.66066113 163.06439714 C-161.71356558 160.16035511 -158.89199418 157.21685979 -156.20387402 154.07050066 C-150.94625728 147.97964555 -145.1166803 142.42708276 -139.39283886 136.77997331 C-137.89018632 135.29565168 -136.39074237 133.80813862 -134.89137402 132.32050066 C-134.00901074 131.44973894 -133.12664746 130.57897722 -132.21754589 129.68182878 C-130.15181665 127.59272948 -128.22693333 125.41856403 -126.31750622 123.1861165 C-122.17690191 118.4396992 -117.76743284 113.99369431 -113.30958691 109.54681902 C-112.42408657 108.65956636 -111.53858624 107.77231371 -110.62625256 106.85817461 C-108.21898298 104.44728182 -105.8095157 102.03863023 -103.39884248 99.63114361 C-100.86265468 97.09750793 -98.32893076 94.56141007 -95.79480114 92.02571611 C-91.54078268 87.76988422 -87.28467372 83.51615154 -83.02736035 79.26361589 C-78.12275173 74.36444829 -73.22175565 69.46168897 -68.32261988 64.55704902 C-64.09748668 60.32736106 -59.87038691 56.0996459 -55.6416715 51.87353931 C-53.12425913 49.35767675 -50.60750525 46.84116544 -48.09253254 44.32286386 C-45.28624749 41.51312319 -42.47584349 38.7075243 -39.66505566 35.90228777 C-38.84454724 35.07975511 -38.02403881 34.25722246 -37.1786665 33.40976457 C-32.94939371 29.19588025 -28.64753665 25.13743383 -24.10792866 21.25856619 C-21.74605258 19.1993888 -19.5948044 16.97047745 -17.44215527 14.69550066 C-16.58815136 13.81120378 -15.73414746 12.92690691 -14.85426464 12.01581316 C-13.08691088 10.17597285 -11.32928006 8.3267498 -9.58082714 6.46893816 C-8.73069042 5.59495378 -7.88055371 4.72096941 -7.00465527 3.82050066 C-6.24386669 3.02192644 -5.48307812 2.22335222 -4.69923535 1.40057878 C-2.42262402 -0.21074934 -2.42262402 -0.21074934 0 0 Z " fill="#616E7E" transform="translate(2121.4226240180433,2122.2107493430376)"/>
<path d="M0 0 C0.50469295 0.66715509 1.0093859 1.33431018 1.52937257 2.02168208 C4.65551478 5.79021685 8.06339573 9.19922556 11.53003883 12.65308666 C12.29551155 13.41971322 13.06098427 14.18633978 13.84965312 14.97619745 C16.42715219 17.55635314 19.00821629 20.13291288 21.58926392 22.70951843 C23.4517897 24.57248011 25.31411592 26.43563934 27.17619932 28.299043 C31.23123001 32.35614689 35.2881148 36.41138934 39.3462162 40.46542168 C45.38056847 46.4937401 51.41205253 52.5249221 57.44294955 58.55669701 C67.58835738 68.70341902 77.73609209 78.8478109 87.88515091 88.99088097 C97.93648882 99.03630301 107.98679304 109.0827574 118.03571701 119.13059425 C118.6603942 119.7552027 119.28507139 120.37981115 119.92867819 121.02334713 C123.10109574 124.19542635 126.27349481 127.36752404 129.44588678 130.53962884 C151.92188595 153.01352707 174.40020309 175.48510558 196.87988281 197.95532227 C218.71471413 219.78097262 240.54849748 241.60767046 262.38085938 263.43579102 C263.05358636 264.10838647 263.72631334 264.78098193 264.419426 265.47395907 C271.17540331 272.22861783 277.93135927 278.98329796 284.68729955 285.73799376 C298.45533998 299.50349715 312.2235224 313.26885851 325.99179077 327.03413391 C326.6249887 327.66719455 327.25818662 328.30025518 327.91057236 328.95249947 C366.25714663 367.29072994 404.60649694 405.62618348 442.956411 443.9610731 C443.76637188 444.77071687 444.57633275 445.58036064 445.41083789 446.41453907 C446.90551078 447.90862474 448.40018561 449.40270847 449.89486277 450.89678988 C450.86977404 451.87131681 450.86977404 451.87131681 451.86438048 452.86553115 C452.42595165 453.42687858 452.98752282 453.98822601 453.5661113 454.56658397 C454.71085075 455.71094607 455.85544921 456.85544921 457 458 C452.28766097 462.81051276 447.53241316 467.47843951 442.421875 471.86328125 C439.09300012 474.80020796 435.86291867 477.83847531 432.625 480.875 C427.6190347 485.56682454 422.58130536 490.21354246 417.46484375 494.78515625 C414.5810446 497.3764623 411.72772565 499.9996044 408.875 502.625 C404.96032621 506.22418301 401.00971857 509.77372954 396.9921875 513.2578125 C394.63979365 515.31500399 392.31965034 517.40596915 390 519.5 C382.9701193 525.83754397 375.81704952 532.02193263 368.62597656 538.17504883 C364.23619123 541.93349816 359.86428146 545.7119831 355.5 549.5 C354.25267396 550.58080972 353.00527811 551.66153888 351.7578125 552.7421875 C349.85574749 554.38998168 347.95500497 556.03920382 346.05761719 557.69238281 C344.16633863 559.33999388 342.27102382 560.98285397 340.375 562.625 C339.80716797 563.12193359 339.23933594 563.61886719 338.65429688 564.13085938 C335.59233978 566.77477682 332.5404951 569.03890792 329 571 C328.58313382 570.51237387 328.16626765 570.02474774 327.73676917 569.52234507 C323.46115933 564.57177305 319.009619 559.86857351 314.37634373 555.2532959 C313.63720101 554.51299934 312.8980583 553.77270278 312.13651732 553.00997299 C309.66666231 550.5374775 307.19326606 548.06855602 304.71986389 545.59960938 C302.92757049 543.80687975 301.13549692 542.01393033 299.34362406 540.22078037 C295.45124089 536.32662872 291.55731448 532.4340304 287.66200829 528.54280281 C281.86988542 522.75672772 276.08064542 516.96777457 270.2919841 511.17823664 C260.55333279 501.4382729 250.81235978 491.70063425 241.07005501 481.96432495 C231.42590225 472.32609203 221.78278678 462.68682324 212.14105034 453.0461731 C211.54124336 452.44643486 210.94143638 451.84669662 210.32345344 451.22878449 C207.27726201 448.18293141 204.23108906 445.13705984 201.18492322 442.09118116 C179.61673737 420.52509493 158.04623465 398.96132741 136.47436523 377.39892578 C115.51941401 356.45316096 94.56551491 335.50634452 73.61303711 314.55810547 C72.96703158 313.91223147 72.32102606 313.26635747 71.6554446 312.60091153 C65.16791032 306.11469578 58.6803974 299.62845867 52.19290012 293.1422059 C38.97747365 279.92931555 25.76190463 266.71656778 12.54624939 253.50390625 C11.93863372 252.89642787 11.33101804 252.28894948 10.70498977 251.66306266 C-29.86095194 211.10631945 -70.43022676 170.5529104 -111 130 C-113.475 131.98 -113.475 131.98 -116 134 C-116.66 133.67 -117.32 133.34 -118 133 C-117.18917969 132.06800781 -116.37835937 131.13601562 -115.54296875 130.17578125 C-110.14037142 123.95831749 -104.7485247 117.73349975 -99.4375 111.4375 C-91.41312248 101.92842944 -83.37259082 92.44303549 -75.01171875 83.2265625 C-73.15265331 81.16895609 -71.32071642 79.09153237 -69.5 77 C-66.10505061 73.10209515 -62.64334116 69.26652943 -59.1796875 65.4296875 C-57.30854906 63.3439382 -55.46075169 61.24182372 -53.625 59.125 C-50.16945208 55.15513797 -46.6061603 51.28657757 -43.04077148 47.41577148 C-40.54917687 44.70599721 -38.0886169 41.97765863 -35.6875 39.1875 C-31.67377288 34.55478846 -27.4560165 30.11272349 -23.265625 25.640625 C-18.44153507 20.48738608 -13.7004701 15.26626743 -9 10 C-7.31321479 8.12435694 -5.62572404 6.24934811 -3.9375 4.375 C-3.18339844 3.53710938 -2.42929688 2.69921875 -1.65234375 1.8359375 C-1.10707031 1.23007813 -0.56179688 0.62421875 0 0 Z " fill="#AAD4C8" transform="translate(1917,2327)"/>
<path d="M0 0 C0.99 0.33 1.98 0.66 3 1 C-110.85 114.85 -224.7 228.7 -342 346 C-342.495 344.515 -342.495 344.515 -343 343 C-229.81 229.81 -116.62 116.62 0 0 Z " fill="#8E97A2" transform="translate(1359,3353)"/>
<path d="M0 0 C0 3 0 3 -1.19897461 4.56646729 C-2.04214233 5.40416656 -2.04214233 5.40416656 -2.90234375 6.25878906 C-3.53720703 6.89665344 -4.17207031 7.53451782 -4.82617188 8.19171143 C-5.52291016 8.87610291 -6.21964844 9.56049438 -6.9375 10.265625 C-7.65099609 10.97724792 -8.36449219 11.68887085 -9.09960938 12.42205811 C-10.61614169 13.9318556 -12.13627339 15.43804481 -13.65966797 16.94091797 C-15.96956545 19.21997184 -18.26891772 21.50922555 -20.56640625 23.80078125 C-22.04365639 25.26884771 -23.521503 26.73631426 -25 28.203125 C-26.02081665 29.21756683 -26.02081665 29.21756683 -27.06225586 30.25250244 C-30.4201614 33.5615333 -33.82391995 36.81603104 -37.3125 39.98730469 C-37.94800781 40.56663757 -38.58351563 41.14597046 -39.23828125 41.74285889 C-41 43 -41 43 -44 43 C-41.00428676 39.97489042 -38.00265195 36.95572125 -35 33.9375 C-34.16082031 33.08994141 -33.32164062 32.24238281 -32.45703125 31.36914062 C-28.099156 26.99437438 -23.68086751 22.79206279 -18.99609375 18.77124023 C-15.16576662 15.37238709 -11.59933935 11.7023865 -8 8.0625 C-7.22527344 7.28326172 -6.45054687 6.50402344 -5.65234375 5.70117188 C-3.76589243 3.8030758 -1.88183755 1.90266851 0 0 Z " fill="#979FA9" transform="translate(2116,2125)"/>
<path d="M0 0 C0.66 0.33 1.32 0.66 2 1 C-3.84706926 7.45909894 -9.74669412 13.8034786 -15.953125 19.921875 C-18.4836746 22.49105895 -20.81478896 25.20031841 -23.16015625 27.9375 C-26.59949534 31.79306484 -30.31043135 35.38572867 -34 39 C-34.66 38.67 -35.32 38.34 -36 38 C-33.48104761 35.31073183 -30.95949008 32.62391938 -28.4375 29.9375 C-27.73302734 29.18533203 -27.02855469 28.43316406 -26.30273438 27.65820312 C-22.42894804 23.53449509 -18.50168608 19.48324826 -14.48510742 15.4987793 C-12.71640684 13.71379608 -11.06152182 11.85457839 -9.4375 9.9375 C-6.4374409 6.45553096 -3.28938219 3.20915335 0 0 Z " fill="#8F98A3" transform="translate(1954,2288)"/>
<path d="M0 0 C0 3 0 3 -2.29492188 5.63549805 C-3.3451977 6.6852984 -4.40374234 7.72686669 -5.46875 8.76171875 C-6.02365112 9.31237503 -6.57855225 9.86303131 -7.15026855 10.43037415 C-8.92660687 12.18990125 -10.7130848 13.93872165 -12.5 15.6875 C-13.70510885 16.87756521 -14.90954483 18.06831223 -16.11328125 19.25976562 C-19.06776708 22.18114979 -22.03138969 25.09297256 -25 28 C-25.99 27.67 -26.98 27.34 -28 27 C-24.19982046 23.10885871 -20.39453972 19.27634157 -16.25 15.75 C-10.51898432 10.83278854 -5.2959677 5.37540722 0 0 Z " fill="#ACD4C6" transform="translate(2148,2094)"/>
<path d="M0 0 C0.66 0.66 1.32 1.32 2 2 C-6.58 10.58 -15.16 19.16 -24 28 C-24.66 27.67 -25.32 27.34 -26 27 C-25.46109131 26.46632813 -24.92218262 25.93265625 -24.36694336 25.3828125 C-21.88773764 22.92460574 -19.41260401 20.46233634 -16.9375 18 C-16.08994141 17.16082031 -15.24238281 16.32164062 -14.36914062 15.45703125 C-9.36560669 10.47281598 -4.55932796 5.39471815 0 0 Z " fill="#919AA4" transform="translate(1999,2241)"/>
<path d="M0 0 C0 3 0 3 -1.34521484 4.7175293 C-1.96090332 5.33023682 -2.5765918 5.94294434 -3.2109375 6.57421875 C-3.87867187 7.24130859 -4.54640625 7.90839844 -5.234375 8.59570312 C-5.94078125 9.28599609 -6.6471875 9.97628906 -7.375 10.6875 C-8.42300781 11.7403418 -8.42300781 11.7403418 -9.4921875 12.81445312 C-14.73316782 18 -14.73316782 18 -17 18 C-15.89041597 14.6712479 -15.07455496 13.98510301 -12.4375 11.8125 C-8.05041036 8.09973698 -4.0135492 4.10961819 0 0 Z " fill="#ADD5C8" transform="translate(2212,2033)"/>
<path d="M0 0 C0.33 0.99 0.66 1.98 1 3 C-2.96 6.96 -6.92 10.92 -11 15 C-11.66 14.67 -12.32 14.34 -13 14 C-12.31292969 13.32453125 -11.62585937 12.6490625 -10.91796875 11.953125 C-10.01691406 11.06109375 -9.11585937 10.1690625 -8.1875 9.25 C-6.84751953 7.92742188 -6.84751953 7.92742188 -5.48046875 6.578125 C-3.44787848 4.46551149 -1.68226182 2.39205335 0 0 Z " fill="#C0DFD6" transform="translate(1916,2328)"/>
<path d="M0 0 C0 3 0 3 -1.79296875 5.19140625 C-2.58316406 5.97386719 -3.37335937 6.75632812 -4.1875 7.5625 C-4.96480469 8.34753906 -5.74210937 9.13257813 -6.54296875 9.94140625 C-8.98212714 11.98502544 -10.99742699 13.01336411 -14 14 C-11.03750349 9.92656729 -7.61640648 6.79433834 -3.8046875 3.55078125 C-1.92288746 1.97318991 -1.92288746 1.97318991 0 0 Z " fill="#B0D6C9" transform="translate(2269,1980)"/>
</svg>
