<?xml version="1.0" encoding="UTF-8"?>
<svg version="1.1" xmlns="http://www.w3.org/2000/svg" width="60" height="60">
<path d="M0 0 C2.375 1.6875 2.375 1.6875 4 4 C4.62894962 9.03159698 3.04361298 13.45075987 1 18 C-0.56010437 19.95451355 -0.56010437 19.95451355 -2.4206543 21.84057617 C-3.11865646 22.5544902 -3.81665863 23.26840424 -4.53581238 24.00395203 C-5.29098648 24.75932755 -6.04616058 25.51470306 -6.82421875 26.29296875 C-7.60384476 27.08020828 -8.38347076 27.86744781 -9.1867218 28.67854309 C-10.83634145 30.33895567 -12.48994234 31.99542105 -14.1472168 33.64819336 C-16.67492949 36.17493432 -19.18058225 38.72221458 -21.68554688 41.27148438 C-23.29296756 42.88411261 -24.90165084 44.49548352 -26.51171875 46.10546875 C-27.62929817 47.24764107 -27.62929817 47.24764107 -28.76945496 48.41288757 C-33.05248906 52.64008321 -36.04414032 54.9306514 -42 56 C-46.32519449 57.47276935 -46.32519449 57.47276935 -50 60 C-51.66617115 60.04063832 -53.33388095 60.042721 -55 60 C-55.99491133 57.42981239 -56.20518157 55.60616498 -55.31640625 52.98046875 C-54.25780415 50.62847731 -53.12903797 48.31910502 -52 46 C-51.75688583 45.35946686 -51.51377167 44.71893372 -51.26329041 44.05899048 C-48.76331373 37.72162586 -45.26937435 33.53547186 -40.453125 28.7890625 C-39.72309265 28.05424652 -38.9930603 27.31943054 -38.24090576 26.56234741 C-36.70384972 25.02190831 -35.16053901 23.48768715 -33.61132812 21.95947266 C-31.25302553 19.62799113 -28.92265096 17.27096669 -26.59375 14.91015625 C-25.09014245 13.40985232 -23.58498482 11.91109992 -22.078125 10.4140625 C-21.388255 9.71407135 -20.69838501 9.0140802 -19.98760986 8.2928772 C-14.43049813 2.86703912 -8.17567745 -1.30067596 0 0 Z " fill="#F34C5C" transform="translate(56,0)"/>
<path d="M0 0 C2.375 1.6875 2.375 1.6875 4 4 C4.62894962 9.03159698 3.04361298 13.45075987 1 18 C-0.56010437 19.95451355 -0.56010437 19.95451355 -2.4206543 21.84057617 C-3.11865646 22.5544902 -3.81665863 23.26840424 -4.53581238 24.00395203 C-5.29098648 24.75932755 -6.04616058 25.51470306 -6.82421875 26.29296875 C-7.60384476 27.08020828 -8.38347076 27.86744781 -9.1867218 28.67854309 C-10.83634145 30.33895567 -12.48994234 31.99542105 -14.1472168 33.64819336 C-16.67492949 36.17493432 -19.18058225 38.72221458 -21.68554688 41.27148438 C-23.29296756 42.88411261 -24.90165084 44.49548352 -26.51171875 46.10546875 C-27.62929817 47.24764107 -27.62929817 47.24764107 -28.76945496 48.41288757 C-33.02208273 52.61007329 -36.0580487 54.98630692 -42 56 C-42 55.01 -42 54.02 -42 53 C-41.01 52.34 -40.02 51.68 -39 51 C-39.825 50.21625 -40.65 49.4325 -41.5 48.625 C-44 46 -44 46 -44 44 C-41.72707059 45.01889939 -40.16975439 45.80902631 -38.5 47.6875 C-38.005 48.120625 -37.51 48.55375 -37 49 C-33.6504612 48.58816589 -31.95910157 47.34360885 -29.5925293 45.01245117 C-28.94893967 44.38477341 -28.30535004 43.75709564 -27.64225769 43.11039734 C-26.95980484 42.4281459 -26.27735199 41.74589447 -25.57421875 41.04296875 C-24.86723343 40.34359695 -24.16024811 39.64422516 -23.43183899 38.92366028 C-21.94117287 37.44379392 -20.45446021 35.95993614 -18.97143555 34.47241211 C-16.69255122 32.19255338 -14.39317838 29.93485382 -12.09179688 27.67773438 C-10.64713877 26.23828142 -9.20373527 24.79756799 -7.76171875 23.35546875 C-7.06914474 22.67929001 -6.37657074 22.00311127 -5.66300964 21.30644226 C-5.03518082 20.66930801 -4.40735199 20.03217377 -3.76049805 19.37573242 C-3.20186569 18.81915451 -2.64323334 18.2625766 -2.06767273 17.68913269 C-0.77699061 16.03484498 -0.77699061 16.03484498 -1.22566223 13.90913391 C-2.2286501 11.43626194 -3.63004187 10.07705133 -5.5625 8.25 C-6.20316406 7.63640625 -6.84382813 7.0228125 -7.50390625 6.390625 C-7.99761719 5.93171875 -8.49132813 5.4728125 -9 5 C-11.99185917 6.34642485 -14.10459107 7.8453356 -16.43579102 10.14526367 C-17.08649063 10.78320358 -17.73719025 11.42114349 -18.40760803 12.07841492 C-19.09938644 12.76796768 -19.79116486 13.45752045 -20.50390625 14.16796875 C-21.22360092 14.88100662 -21.94329559 15.59404449 -22.68479919 16.32868958 C-24.20453036 17.83830328 -25.72156384 19.35063692 -27.23608398 20.86547852 C-29.54704897 23.17207815 -31.87350614 25.46222374 -34.20117188 27.75195312 C-35.67806355 29.22297486 -37.15400662 30.69494972 -38.62890625 32.16796875 C-39.32270889 32.84740036 -40.01651154 33.52683197 -40.7313385 34.22685242 C-45.3415398 38.88086173 -48.42337181 42.96360266 -49.375 49.625 C-48.90532827 52.59958764 -47.68992705 54.53552305 -46 57 C-48.35968744 59.09749995 -49.54616994 59.96905704 -52.75 60.1875 C-53.86375 60.0946875 -53.86375 60.0946875 -55 60 C-55.99491133 57.42981239 -56.20518157 55.60616498 -55.31640625 52.98046875 C-54.25780415 50.62847731 -53.12903797 48.31910502 -52 46 C-51.75688583 45.35946686 -51.51377167 44.71893372 -51.26329041 44.05899048 C-48.76331373 37.72162586 -45.26937435 33.53547186 -40.453125 28.7890625 C-39.72309265 28.05424652 -38.9930603 27.31943054 -38.24090576 26.56234741 C-36.70384972 25.02190831 -35.16053901 23.48768715 -33.61132812 21.95947266 C-31.25302553 19.62799113 -28.92265096 17.27096669 -26.59375 14.91015625 C-25.09014245 13.40985232 -23.58498482 11.91109992 -22.078125 10.4140625 C-21.388255 9.71407135 -20.69838501 9.0140802 -19.98760986 8.2928772 C-14.43049813 2.86703912 -8.17567745 -1.30067596 0 0 Z " fill="#0E0607" transform="translate(56,0)"/>
<path d="M0 0 C4.26615504 2.04066983 6.73398524 4.58553002 10 8 C9.67 8.66 9.34 9.32 9 10 C8.443125 9.319375 7.88625 8.63875 7.3125 7.9375 C5.20054276 5.71831838 5.20054276 5.71831838 2.64453125 6.13671875 C-0.52799769 7.17235966 -2.19857057 8.59865899 -4.625 10.875 C-5.38039062 11.57367188 -6.13578125 12.27234375 -6.9140625 12.9921875 C-7.60242188 13.65476562 -8.29078125 14.31734375 -9 15 C-9.52335937 15.47695313 -10.04671875 15.95390625 -10.5859375 16.4453125 C-12.10915448 17.99711081 -12.10915448 17.99711081 -13.18359375 20.16796875 C-15.91470299 24.42614982 -19.47784702 27.76588048 -23.0625 31.3125 C-23.79533203 32.05306641 -24.52816406 32.79363281 -25.28320312 33.55664062 C-26.33604492 34.60561523 -26.33604492 34.60561523 -27.41015625 35.67578125 C-28.05090088 36.31427002 -28.69164551 36.95275879 -29.35180664 37.6105957 C-31 39 -31 39 -33 39 C-31.16172132 42.15133488 -29.24027294 45.11964908 -27 48 C-27.9590625 48.1546875 -27.9590625 48.1546875 -28.9375 48.3125 C-29.618125 48.539375 -30.29875 48.76625 -31 49 C-31.33 49.99 -31.66 50.98 -32 52 C-36 52 -36 52 -37.8125 50.4375 C-39.52655348 46.91917971 -38.90756252 44.75990188 -38 41 C-35.65795623 34.99706021 -31.56623966 31.18006086 -27.05078125 26.7578125 C-26.27816452 25.98944061 -25.50554779 25.22106873 -24.70951843 24.42941284 C-22.25082246 21.98745073 -19.78188004 19.55615285 -17.3125 17.125 C-15.63928608 15.46683967 -13.96675211 13.80799292 -12.29492188 12.1484375 C-8.20445836 8.09097307 -4.10554152 4.04220405 0 0 Z " fill="#F16370" transform="translate(45,4)"/>
<path d="M0 0 C0.66 0.33 1.32 0.66 2 1 C0.71982635 4.67986878 -0.68981767 7.07229309 -3.4206543 9.84057617 C-4.11865646 10.5544902 -4.81665863 11.26840424 -5.53581238 12.00395203 C-6.29098648 12.75932755 -7.04616058 13.51470306 -7.82421875 14.29296875 C-8.60384476 15.08020828 -9.38347076 15.86744781 -10.1867218 16.67854309 C-11.83634145 18.33895567 -13.48994234 19.99542105 -15.1472168 21.64819336 C-17.67492949 24.17493432 -20.18058225 26.72221458 -22.68554688 29.27148438 C-24.29296756 30.88411261 -25.90165084 32.49548352 -27.51171875 34.10546875 C-28.2567717 34.86691696 -29.00182465 35.62836517 -29.76945496 36.41288757 C-34.02208273 40.61007329 -37.0580487 42.98630692 -43 44 C-43 43.01 -43 42.02 -43 41 C-42.01 40.34 -41.02 39.68 -40 39 C-40.825 38.21625 -41.65 37.4325 -42.5 36.625 C-45 34 -45 34 -45 32 C-42.72707059 33.01889939 -41.16975439 33.80902631 -39.5 35.6875 C-39.005 36.120625 -38.51 36.55375 -38 37 C-34.65370289 36.58921434 -32.98523895 35.3602199 -30.64013672 33.01245117 C-30.00623016 32.38477341 -29.37232361 31.75709564 -28.71920776 31.11039734 C-28.04616608 30.4281459 -27.37312439 29.74589447 -26.6796875 29.04296875 C-25.9798172 28.34359695 -25.2799469 27.64422516 -24.55886841 26.92366028 C-23.08105003 25.44350217 -21.60692198 23.95965172 -20.13623047 22.47241211 C-17.88535312 20.19796155 -15.62147852 17.93709823 -13.35546875 15.67773438 C-11.92108126 14.23776939 -10.48746143 12.79703924 -9.0546875 11.35546875 C-8.37759735 10.67929001 -7.7005072 10.00311127 -7.00289917 9.30644226 C-6.06149582 8.35074089 -6.06149582 8.35074089 -5.10107422 7.37573242 C-4.5491037 6.81915451 -3.99713318 6.2625766 -3.42843628 5.68913269 C-1.91229903 3.89629319 -0.96174796 2.13423439 0 0 Z " fill="#060707" transform="translate(57,12)"/>
<path d="M0 0 C3.23494901 2.15663267 4.10802277 3.68903984 6 7 C6.98244845 8.34631825 7.97676564 9.68441297 9 11 C8.360625 11.103125 7.72125 11.20625 7.0625 11.3125 C6.381875 11.539375 5.70125 11.76625 5 12 C4.67 12.99 4.34 13.98 4 15 C0 15 0 15 -1.8125 13.4375 C-3.50572546 9.96193196 -2.86061933 7.70728328 -2 4 C-0.9375 1.5625 -0.9375 1.5625 0 0 Z " fill="#CBE9F3" transform="translate(9,41)"/>
<path d="M0 0 C3.36939433 0.33693943 5.42910583 1.88819408 8 4 C7.67 5.32 7.34 6.64 7 8 C3 8 3 8 1.515625 6.6875 C0.34375 5.125 -0.828125 3.5625 -2 2 C-1.34 1.34 -0.68 0.68 0 0 Z " fill="#EB4958" transform="translate(52,2)"/>
<path d="M0 0 C0.66 0.99 1.32 1.98 2 3 C2.680625 2.2575 2.680625 2.2575 3.375 1.5 C5 0 5 0 7 0 C7.33 0.99 7.66 1.98 8 3 C5.64031256 5.09749995 4.45383006 5.96905704 1.25 6.1875 C0.13625 6.0946875 0.13625 6.0946875 -1 6 C-1.625 4.125 -1.625 4.125 -2 2 C-1.34 1.34 -0.68 0.68 0 0 Z " fill="#090405" transform="translate(2,54)"/>
<path d="M0 0 C0.66 0.66 1.32 1.32 2 2 C0.02 3.98 -1.96 5.96 -4 8 C-4.99 7.67 -5.98 7.34 -7 7 C-4.69 4.69 -2.38 2.38 0 0 Z " fill="#270D0F" transform="translate(42,12)"/>
<path d="M0 0 C1.98 1.65 3.96 3.3 6 5 C5.67 5.99 5.34 6.98 5 8 C3.02 5.69 1.04 3.38 -1 1 C-0.67 0.67 -0.34 0.34 0 0 Z " fill="#D94351" transform="translate(51,3)"/>
</svg>
